<?xml version="1.0" standalone="no"?><!DOCTYPE svg PUBLIC "-//W3C//DTD SVG 1.1//EN" "http://www.w3.org/Graphics/SVG/1.1/DTD/svg11.dtd"><svg class="icon" width="200px" height="200.00px" viewBox="0 0 1024 1024" version="1.1" xmlns="http://www.w3.org/2000/svg"><path fill="#333333" d="M687.513702 550.521176a280.107623 280.107623 0 0 0 105.104136-218.881913v-51.021425a280.617838 280.617838 0 1 0-561.235676 0v51.021425a280.107623 280.107623 0 0 0 105.104136 218.881913A408.1714 408.1714 0 0 0 103.8286 918.38565v51.021425a51.021425 51.021425 0 0 0 51.021425 51.021425h714.29995a51.021425 51.021425 0 0 0 51.021425-51.021425v-51.021425a408.1714 408.1714 0 0 0-232.657698-367.864474zM333.425012 331.639263v-51.021425a178.574988 178.574988 0 0 1 357.149976 0v51.021425a178.574988 178.574988 0 0 1-357.149976 0z m309.70005 310.720478l-127.043348 259.188839-121.430992-265.821624a306.12855 306.12855 0 0 1 248.47434 6.632785zM307.9143 691.340309l102.04285 227.555555H205.87145a306.12855 306.12855 0 0 1 102.04285-227.555555z m313.27155 227.555555l106.634778-216.841056A306.12855 306.12855 0 0 1 818.12855 918.38565z"  /></svg>