<?xml version="1.0" standalone="no"?><!DOCTYPE svg PUBLIC "-//W3C//DTD SVG 1.1//EN" "http://www.w3.org/Graphics/SVG/1.1/DTD/svg11.dtd"><svg class="icon" width="200px" height="199.61px" viewBox="0 0 1026 1024" version="1.1" xmlns="http://www.w3.org/2000/svg"><path fill="#333333" d="M890.324764 133.643587A501.941511 501.941511 0 0 0 511.953798 1.392466a502.962755 502.962755 0 0 0-378.370966 132.251121A504.494621 504.494621 0 0 0 1.331712 512.014553a506.53711 506.53711 0 0 0 132.25112 379.39221A505.515865 505.515865 0 0 0 511.953798 1022.636639h15.318663a499.899022 499.899022 0 0 0 364.073547-132.25112A504.494621 504.494621 0 0 0 1022.575885 512.014553a506.53711 506.53711 0 0 0-132.251121-378.370966zM818.32705 818.387805a408.497669 408.497669 0 0 1-306.373252 102.124417 408.497669 408.497669 0 0 1-306.373251-102.124417 408.497669 408.497669 0 0 1-102.124418-306.373252 408.497669 408.497669 0 0 1 102.124418-306.373252 408.497669 408.497669 0 0 1 306.373251-102.124417 408.497669 408.497669 0 0 1 306.373252 102.124417 408.497669 408.497669 0 0 1 102.124417 306.373252 408.497669 408.497669 0 0 1-102.124417 306.373252z"  /><path fill="#333333" d="M344.980376 520.184506a41.871011 41.871011 0 0 0 41.871011-41.871011V395.082095a41.871011 41.871011 0 1 0-83.742022 0v83.2314a41.871011 41.871011 0 0 0 41.871011 41.871011zM678.927221 520.184506a41.871011 41.871011 0 0 0 41.871011-41.871011V395.082095a41.871011 41.871011 0 0 0-83.742023 0v83.2314a41.871011 41.871011 0 0 0 41.871012 41.871011zM694.756505 608.011505a51.062209 51.062209 0 0 0-67.402115 26.552348A124.591789 124.591789 0 0 1 511.953798 703.497835a124.591789 124.591789 0 0 1-115.400591-69.444604 51.062209 51.062209 0 1 0-93.954464 40.339145 224.673718 224.673718 0 0 0 209.355055 131.229876 224.673718 224.673718 0 0 0 209.355056-130.208632 51.062209 51.062209 0 0 0-26.552349-67.402115z"  /></svg>