<?xml version="1.0" standalone="no"?><!DOCTYPE svg PUBLIC "-//W3C//DTD SVG 1.1//EN" "http://www.w3.org/Graphics/SVG/1.1/DTD/svg11.dtd"><svg class="icon" width="200px" height="200.00px" viewBox="0 0 1024 1024" version="1.1" xmlns="http://www.w3.org/2000/svg"><path fill="#333333" d="M962.512921 282.597029a74.744189 74.744189 0 0 0-40.95572-64.50526L571.385794 15.360955a127.474679 127.474679 0 0 0-121.331321 0L102.442799 217.579823a74.744189 74.744189 0 0 0-39.419881 60.409687v447.441242a98.293728 98.293728 0 0 0 51.19465 84.98312l343.516103 198.635242a124.403 124.403 0 0 0 118.259642 0l341.468316-198.123296a98.805675 98.805675 0 0 0 51.19465-84.983119V283.108975zM501.249123 102.39186a30.71679 30.71679 0 0 1 18.430075 0l307.1679 178.669329L522.750877 460.754411a30.71679 30.71679 0 0 1-18.942021 0l-307.167901-178.669329zM163.876379 725.430752V382.938543l288.737827 166.894559h4.095572v341.468317z m395.222699 172.525972v-342.49221a106.996819 106.996819 0 0 0 14.846449-6.143358l286.178094-166.382613v338.908584z"  /></svg>