<?xml version="1.0" standalone="no"?><!DOCTYPE svg PUBLIC "-//W3C//DTD SVG 1.1//EN" "http://www.w3.org/Graphics/SVG/1.1/DTD/svg11.dtd"><svg class="icon" width="200px" height="200.00px" viewBox="0 0 1024 1024" version="1.1" xmlns="http://www.w3.org/2000/svg"><path fill="#333333" d="M512 0a512 512 0 1 0 512 512A512 512 0 0 0 512 0z m406.016 460.8H768a670.72 670.72 0 0 0-108.544-331.264A409.6 409.6 0 0 1 918.016 460.8zM358.4 563.2h307.2a512 512 0 0 1-153.6 347.136A512 512 0 0 1 358.4 563.2z m0-102.4a512 512 0 0 1 153.6-347.136A512 512 0 0 1 665.6 460.8z m6.656-331.264A669.184 669.184 0 0 0 256 460.8H102.4a409.6 409.6 0 0 1 264.704-331.264zM105.984 563.2H256a668.672 668.672 0 0 0 109.056 331.264A409.6 409.6 0 0 1 105.984 563.2z m550.912 331.264A669.184 669.184 0 0 0 768 563.2h153.6a409.6 409.6 0 0 1-264.704 331.264z"  /></svg>