<?xml version="1.0" standalone="no"?><!DOCTYPE svg PUBLIC "-//W3C//DTD SVG 1.1//EN" "http://www.w3.org/Graphics/SVG/1.1/DTD/svg11.dtd"><svg class="icon" width="200px" height="200.00px" viewBox="0 0 1024 1024" version="1.1" xmlns="http://www.w3.org/2000/svg"><path fill="#333333" d="M30.526197 302.710725l460.538184 204.683637a51.170909 51.170909 0 0 0 41.448436 0l460.538184-204.683637a51.170909 51.170909 0 0 0 0-93.642764l-460.538184-204.683637a51.170909 51.170909 0 0 0-41.448436 0l-460.538184 204.683637a51.170909 51.170909 0 0 0 0 93.642764zM512.044453 107.237851L846.7022 256.145197 512.044453 405.052544 177.386706 256.145197z"  /><path fill="#333333" d="M30.526197 558.565272l460.538184 204.683637a51.170909 51.170909 0 0 0 41.448436 0l460.538184-204.683637a51.170909 51.170909 0 0 0-41.448436-93.642764L512.044453 660.90709 72.486342 465.434217a51.170909 51.170909 0 0 0-41.448436 93.642764z"  /><path fill="#333333" d="M951.602565 721.288763L512.044453 916.761637l-439.558111-195.472874a51.170909 51.170909 0 1 0-41.448436 93.642764l460.538184 204.683638a51.170909 51.170909 0 0 0 41.448436 0l460.538184-204.683638a51.170909 51.170909 0 0 0-41.448436-93.642764z"  /></svg>