<?xml version="1.0" standalone="no"?><!DOCTYPE svg PUBLIC "-//W3C//DTD SVG 1.1//EN" "http://www.w3.org/Graphics/SVG/1.1/DTD/svg11.dtd"><svg class="icon" width="200px" height="200.00px" viewBox="0 0 1024 1024" version="1.1" xmlns="http://www.w3.org/2000/svg"><path fill="#333333" d="M997.846119 262.807097l-460.70855-255.949194a51.189839 51.189839 0 0 0-51.189839 0l-460.708549 255.949194a51.189839 51.189839 0 0 0-18.428342 69.618181A51.189839 51.189839 0 0 0 51.345999 358.532095v614.278066a51.189839 51.189839 0 0 0 51.189839 51.189839h563.088227a51.189839 51.189839 0 0 0 0-102.379678H153.725676V307.342257l358.328872-199.128473L870.38342 307.342257v307.139032a51.189839 51.189839 0 0 0 102.379678 0V358.532095a51.189839 51.189839 0 0 0 25.083021-95.724998z"  /><path fill="#333333" d="M783.360694 762.419924a228.306681 228.306681 0 0 0 35.832887-122.343715 230.354275 230.354275 0 1 0-230.354275 230.354275 228.306681 228.306681 0 0 0 122.343715-35.832888l174.557351 174.557351a51.189839 51.189839 0 0 0 72.177672-72.177673zM460.864709 640.076209a127.974597 127.974597 0 1 1 127.974597 127.974597A127.974597 127.974597 0 0 1 460.864709 640.076209z"  /></svg>