<?xml version="1.0" standalone="no"?><!DOCTYPE svg PUBLIC "-//W3C//DTD SVG 1.1//EN" "http://www.w3.org/Graphics/SVG/1.1/DTD/svg11.dtd"><svg class="icon" width="200px" height="200.00px" viewBox="0 0 1024 1024" version="1.1" xmlns="http://www.w3.org/2000/svg"><path fill="#333333" d="M870.4 66.048h-142.848V51.2a51.2 51.2 0 0 0-102.4 0v14.848H398.848V51.2a51.2 51.2 0 0 0-102.4 0v14.848H153.6a153.6 153.6 0 0 0-153.6 153.6V870.4a153.6 153.6 0 0 0 153.6 153.6h716.8a153.6 153.6 0 0 0 153.6-153.6V219.648a153.6 153.6 0 0 0-153.6-153.6z m-716.8 102.4h142.848v14.848a51.2 51.2 0 0 0 102.4 0v-14.848h226.816v14.848a51.2 51.2 0 0 0 102.4 0v-14.848H870.4a51.2 51.2 0 0 1 51.2 51.2v142.336H102.4V219.648a51.2 51.2 0 0 1 51.2-51.2zM870.4 921.6H153.6a51.2 51.2 0 0 1-51.2-51.2V464.384h819.2V870.4a51.2 51.2 0 0 1-51.2 51.2z"  /><path fill="#333333" d="M775.168 723.968h-131.584a51.2 51.2 0 0 0 0 102.4h131.584a51.2 51.2 0 0 0 0-102.4z"  /></svg>