<?xml version="1.0" standalone="no"?><!DOCTYPE svg PUBLIC "-//W3C//DTD SVG 1.1//EN" "http://www.w3.org/Graphics/SVG/1.1/DTD/svg11.dtd"><svg class="icon" width="200px" height="200.00px" viewBox="0 0 1024 1024" version="1.1" xmlns="http://www.w3.org/2000/svg"><path fill="#333333" d="M972.8 0H51.2a51.2 51.2 0 0 0-51.2 51.2v665.6a51.2 51.2 0 0 0 51.2 51.2h409.6v153.6H256a51.2 51.2 0 0 0 0 102.4h512a51.2 51.2 0 0 0 0-102.4h-204.8v-153.6h409.6a51.2 51.2 0 0 0 51.2-51.2V51.2a51.2 51.2 0 0 0-51.2-51.2z m-51.2 665.6H102.4V102.4h819.2z"  /><path fill="#333333" d="M256 307.2h307.2a51.2 51.2 0 0 0 0-102.4H256a51.2 51.2 0 0 0 0 102.4zM256 512h512a51.2 51.2 0 0 0 0-102.4H256a51.2 51.2 0 0 0 0 102.4z"  /></svg>