<?xml version="1.0" standalone="no"?><!DOCTYPE svg PUBLIC "-//W3C//DTD SVG 1.1//EN" "http://www.w3.org/Graphics/SVG/1.1/DTD/svg11.dtd"><svg class="icon" width="200px" height="200.00px" viewBox="0 0 1024 1024" version="1.1" xmlns="http://www.w3.org/2000/svg"><path fill="#333333" d="M1009.168634 936.539484L819.415116 748.320361A460.318507 460.318507 0 1 0 748.32148 819.413997l188.219123 188.219123a51.146501 51.146501 0 0 0 72.116566-72.116566zM461.389611 819.413997a358.025505 358.025505 0 1 1 358.025505-358.025505 358.025505 358.025505 0 0 1-358.025505 358.025505z"  /><path fill="#333333" d="M620.455228 303.857269l-204.586003 204.586003-93.086631-88.483446A51.146501 51.146501 0 0 0 250.666028 492.076392l126.843322 126.843322a51.146501 51.146501 0 0 0 72.116566 0l242.945878-242.945879a51.146501 51.146501 0 0 0-72.116566-72.116566z"  /></svg>