<?xml version="1.0" standalone="no"?><!DOCTYPE svg PUBLIC "-//W3C//DTD SVG 1.1//EN" "http://www.w3.org/Graphics/SVG/1.1/DTD/svg11.dtd"><svg class="icon" width="200px" height="200.00px" viewBox="0 0 1024 1024" version="1.1" xmlns="http://www.w3.org/2000/svg"><path fill="#333333" d="M921.6 0H102.4a51.2 51.2 0 0 0-51.2 51.2v921.6a51.2 51.2 0 0 0 51.2 51.2h819.2a51.2 51.2 0 0 0 51.2-51.2V51.2a51.2 51.2 0 0 0-51.2-51.2z m-51.2 921.6H153.6V102.4h716.8z"  /><path fill="#333333" d="M307.2 307.2m-51.2 0a51.2 51.2 0 1 0 102.4 0 51.2 51.2 0 1 0-102.4 0Z"  /><path fill="#333333" d="M460.8 358.4h256a51.2 51.2 0 0 0 0-102.4H460.8a51.2 51.2 0 0 0 0 102.4z"  /><path fill="#333333" d="M307.2 512m-51.2 0a51.2 51.2 0 1 0 102.4 0 51.2 51.2 0 1 0-102.4 0Z"  /><path fill="#333333" d="M460.8 563.2h256a51.2 51.2 0 0 0 0-102.4H460.8a51.2 51.2 0 0 0 0 102.4z"  /></svg>