<?xml version="1.0" standalone="no"?><!DOCTYPE svg PUBLIC "-//W3C//DTD SVG 1.1//EN" "http://www.w3.org/Graphics/SVG/1.1/DTD/svg11.dtd"><svg class="icon" width="200px" height="200.00px" viewBox="0 0 1024 1024" version="1.1" xmlns="http://www.w3.org/2000/svg"><path fill="#333333" d="M813.568 27.648A51.2 51.2 0 0 0 768 0H51.2a51.2 51.2 0 0 0-41.472 80.896L256 425.984V819.2a51.2 51.2 0 0 0 20.48 40.96l204.8 153.6a51.2 51.2 0 0 0 30.72 10.24 51.2 51.2 0 0 0 51.2-51.2V425.984l246.272-345.088a51.2 51.2 0 0 0 4.096-53.248z m-343.04 352.256A51.2 51.2 0 0 0 460.8 409.6v460.8l-102.4-76.8V409.6a51.2 51.2 0 0 0-9.728-29.696L150.528 102.4h518.144zM972.8 819.2h-256a51.2 51.2 0 0 0 0 102.4h256a51.2 51.2 0 0 0 0-102.4zM972.8 614.4h-256a51.2 51.2 0 0 0 0 102.4h256a51.2 51.2 0 0 0 0-102.4z"  /><path fill="#333333" d="M665.6 460.8a51.2 51.2 0 0 0 51.2 51.2h256a51.2 51.2 0 0 0 0-102.4h-256a51.2 51.2 0 0 0-51.2 51.2z"  /></svg>