<?xml version="1.0" standalone="no"?><!DOCTYPE svg PUBLIC "-//W3C//DTD SVG 1.1//EN" "http://www.w3.org/Graphics/SVG/1.1/DTD/svg11.dtd"><svg class="icon" width="200px" height="200.00px" viewBox="0 0 1024 1024" version="1.1" xmlns="http://www.w3.org/2000/svg"><path fill="#333333" d="M997.846119 262.807097l-460.70855-255.949194a51.189839 51.189839 0 0 0-51.189839 0l-460.708549 255.949194a51.189839 51.189839 0 0 0-18.428342 69.618181A51.189839 51.189839 0 0 0 51.345999 358.532095v614.278066a51.189839 51.189839 0 0 0 51.189839 51.189839h819.037421a51.189839 51.189839 0 0 0 51.189839-51.189839V358.532095a51.189839 51.189839 0 0 0 25.083021-95.724998zM153.725676 921.620322V307.342257l358.328872-199.128473L870.38342 307.342257v614.278065z"  /><path fill="#333333" d="M204.915515 768.050806h102.379678v102.379678H204.915515zM204.915515 614.481289h102.379678v102.379678H204.915515zM204.915515 460.911773h102.379678v102.379678H204.915515zM358.485032 614.481289h102.379677v102.379678H358.485032zM358.485032 768.050806h102.379677v102.379678H358.485032zM512.054548 768.050806h102.379678v102.379678h-102.379678z"  /></svg>